<svg width="1999" height="731" viewBox="0 0 1999 731" fill="none" xmlns="http://www.w3.org/2000/svg">
<rect width="1998.07" height="730.771" fill="white"/>
<path d="M459.69 349.054V465.757L328.952 412.407V643.076L222.738 598.747V454.919L328.952 412.407L328.952 294.681L222.738 250.352V133.649L328.952 177.978L328.952 294.681L459.69 349.054Z" fill="white"/>
<path d="M198.214 348.031L92 303.702V420.405L198.214 464.735V348.031Z" fill="white"/>
<g filter="url(#filter0_d_20_52)">
<path fill-rule="evenodd" clip-rule="evenodd" d="M222.738 133.615L324.617 92L426.496 133.615L426.496 250.318L557.234 304.691V421.395L459.69 465.724V349.021L328.952 294.647L328.952 177.944L222.738 133.615ZM328.952 412.373L426.496 452.061L459.69 465.724L426.496 452.178V598.713L328.952 643.042V412.373ZM328.952 412.373L328.952 294.647L222.738 250.318L92 303.669L198.214 347.998V464.701L222.738 454.886L328.952 412.373Z" fill="#008C9E"/>
<path d="M222.738 133.615L324.617 92L426.496 133.615M222.738 133.615L328.952 177.944M222.738 133.615V250.318M426.496 133.615L426.496 250.318M426.496 133.615L328.952 177.944M426.496 250.318L557.234 304.691M426.496 250.318L328.952 294.647M557.234 304.691V421.395L459.69 465.724M557.234 304.691L459.69 349.021M459.69 465.724V349.021M459.69 465.724L426.496 452.061M459.69 465.724L426.496 452.178M459.69 349.021L328.952 294.647M328.952 294.647L328.952 177.944M328.952 294.647L328.952 412.373M328.952 294.647L222.738 250.318M328.952 294.647L198.214 347.998M328.952 412.373L426.496 452.061M328.952 412.373V643.042M328.952 412.373L222.738 454.886M328.952 412.373L426.496 452.178M426.496 452.061V452.178M426.496 452.178V598.713L328.952 643.042M328.952 643.042L222.738 598.713V454.886M222.738 250.318L92 303.669M92 303.669L198.214 347.998M92 303.669V420.372L198.214 464.701M198.214 347.998V464.701M198.214 464.701L222.738 454.886M222.738 454.886V454.694" stroke="#002A3A" stroke-width="8" stroke-linecap="round" stroke-linejoin="round"/>
</g>
<path d="M1768.43 548.821C1743.29 548.821 1720.43 543.107 1699.86 531.678C1679.61 520.249 1663.61 504.085 1651.86 483.186C1640.43 461.96 1634.71 437.47 1634.71 409.713C1634.71 382.284 1640.59 358.12 1652.35 337.221C1664.43 315.995 1680.75 299.831 1701.33 288.729C1721.9 277.3 1744.92 271.585 1770.39 271.585C1795.86 271.585 1818.88 277.3 1839.45 288.729C1860.03 299.831 1876.19 315.832 1887.95 336.731C1900.03 357.63 1906.07 381.957 1906.07 409.713C1906.07 437.47 1899.87 461.96 1887.46 483.186C1875.37 504.085 1858.88 520.249 1837.99 531.678C1817.09 543.107 1793.9 548.821 1768.43 548.821ZM1768.43 509.636C1784.43 509.636 1799.45 505.881 1813.49 498.37C1827.54 490.86 1838.8 479.594 1847.29 464.573C1856.11 449.552 1860.52 431.265 1860.52 409.713C1860.52 388.162 1856.27 369.875 1847.78 354.854C1839.29 339.833 1828.19 328.731 1814.47 321.547C1800.76 314.036 1785.9 310.281 1769.9 310.281C1753.57 310.281 1738.55 314.036 1724.84 321.547C1711.45 328.731 1700.67 339.833 1692.51 354.854C1684.35 369.875 1680.26 388.162 1680.26 409.713C1680.26 431.592 1684.18 450.042 1692.02 465.063C1700.18 480.084 1710.96 491.349 1724.35 498.86C1737.74 506.044 1752.43 509.636 1768.43 509.636Z" fill="#002A3A"/>
<path d="M1581.2 312.73V470.941C1581.2 484.002 1583.97 493.309 1589.52 498.86C1595.07 504.085 1604.71 506.697 1618.42 506.697H1651.24V544.413H1611.07C1586.26 544.413 1567.64 538.698 1555.24 527.269C1542.83 515.84 1536.62 497.064 1536.62 470.941V312.73H1501.85V275.994H1536.62V208.399H1581.2V275.994H1651.24V312.73H1581.2Z" fill="#002A3A"/>
<path d="M1456.66 312.73V470.941C1456.66 484.002 1459.43 493.309 1464.98 498.86C1470.53 504.085 1480.17 506.697 1493.88 506.697H1526.7V544.413H1486.54C1461.72 544.413 1443.1 538.698 1430.7 527.269C1418.29 515.84 1412.08 497.064 1412.08 470.941V312.73H1377.31V275.994H1412.08V208.399H1456.66V275.994H1526.7V312.73H1456.66Z" fill="#002A3A"/>
<path d="M1295.28 548.821C1274.71 548.821 1256.26 545.392 1239.93 538.535C1223.61 531.351 1210.71 521.555 1201.24 509.146C1191.77 496.411 1186.54 481.88 1185.56 465.552H1231.61C1232.91 478.941 1239.12 489.88 1250.22 498.37C1261.65 506.86 1276.51 511.105 1294.79 511.105C1311.77 511.105 1325.16 507.35 1334.96 499.84C1344.75 492.329 1349.65 482.859 1349.65 471.43C1349.65 459.675 1344.43 451.021 1333.98 445.47C1323.53 439.592 1307.36 433.878 1285.49 428.326C1265.57 423.102 1249.24 417.877 1236.5 412.652C1224.09 407.101 1213.32 399.101 1204.18 388.651C1195.36 377.875 1190.95 363.834 1190.95 346.527C1190.95 332.812 1195.03 320.24 1203.2 308.811C1211.36 297.382 1222.95 288.402 1237.97 281.872C1252.99 275.014 1270.14 271.585 1289.4 271.585C1319.12 271.585 1343.12 279.096 1361.41 294.117C1379.69 309.138 1389.49 329.71 1390.8 355.834H1346.22C1345.24 341.792 1339.53 330.527 1329.08 322.036C1318.96 313.546 1305.24 309.301 1287.93 309.301C1271.93 309.301 1259.2 312.73 1249.73 319.587C1240.26 326.445 1235.52 335.425 1235.52 346.527C1235.52 355.344 1238.3 362.691 1243.85 368.569C1249.73 374.12 1256.91 378.692 1265.4 382.284C1274.22 385.549 1286.3 389.304 1301.65 393.55C1320.92 398.774 1336.59 403.999 1348.67 409.224C1360.75 414.122 1371.04 421.632 1379.53 431.755C1388.35 441.878 1392.92 455.103 1393.24 471.43C1393.24 486.125 1389.16 499.35 1381 511.105C1372.84 522.861 1361.24 532.167 1346.22 539.025C1331.53 545.556 1314.55 548.821 1295.28 548.821Z" fill="#002A3A"/>
<path d="M906.475 409.224C906.475 381.794 912.026 357.793 923.129 337.221C934.231 316.322 949.415 300.158 968.681 288.729C988.274 277.3 1009.99 271.585 1033.83 271.585C1057.34 271.585 1077.75 276.647 1095.05 286.77C1112.36 296.893 1125.26 309.628 1133.75 324.975V275.994H1178.81V544.413H1133.75V494.452C1124.93 510.126 1111.71 523.187 1094.07 533.637C1076.77 543.76 1056.52 548.821 1033.34 548.821C1009.5 548.821 987.948 542.943 968.681 531.188C949.415 519.432 934.231 502.942 923.129 481.716C912.026 460.491 906.475 436.327 906.475 409.224ZM1133.75 409.713C1133.75 389.468 1129.67 371.834 1121.5 356.813C1113.34 341.792 1102.24 330.363 1088.2 322.526C1074.48 314.363 1059.3 310.281 1042.64 310.281C1025.99 310.281 1010.81 314.199 997.091 322.036C983.376 329.873 972.437 341.303 964.273 356.324C956.11 371.345 952.028 388.978 952.028 409.224C952.028 429.796 956.11 447.756 964.273 463.103C972.437 478.124 983.376 489.717 997.091 497.88C1010.81 505.717 1025.99 509.636 1042.64 509.636C1059.3 509.636 1074.48 505.717 1088.2 497.88C1102.24 489.717 1113.34 478.124 1121.5 463.103C1129.67 447.756 1133.75 429.959 1133.75 409.713Z" fill="#002A3A"/>
<path d="M690.573 325.955C699.716 309.955 713.105 296.893 730.738 286.77C748.371 276.647 768.454 271.586 790.985 271.586C815.15 271.586 836.865 277.3 856.131 288.729C875.397 300.158 890.581 316.322 901.684 337.221C912.786 357.793 918.338 381.794 918.338 409.224C918.338 436.327 912.786 460.491 901.684 481.717C890.581 502.942 875.234 519.432 855.641 531.188C836.375 542.944 814.823 548.821 790.985 548.821C767.801 548.821 747.392 543.76 729.758 533.637C712.452 523.514 699.39 510.616 690.573 494.942V544.413H646V181.949H690.573V325.955ZM872.785 409.224C872.785 388.978 868.703 371.345 860.539 356.324C852.376 341.303 841.273 329.874 827.232 322.037C813.517 314.2 798.333 310.281 781.679 310.281C765.352 310.281 750.167 314.363 736.126 322.526C722.411 330.363 711.309 341.956 702.819 357.303C694.655 372.324 690.573 389.794 690.573 409.714C690.573 429.959 694.655 447.756 702.819 463.104C711.309 478.125 722.411 489.717 736.126 497.88C750.167 505.718 765.352 509.636 781.679 509.636C798.333 509.636 813.517 505.718 827.232 497.88C841.273 489.717 852.376 478.125 860.539 463.104C868.703 447.756 872.785 429.796 872.785 409.224Z" fill="#002A3A"/>
<defs>
<filter id="filter0_d_20_52" x="84" y="88" width="481.234" height="567.042" filterUnits="userSpaceOnUse" color-interpolation-filters="sRGB">
<feFlood flood-opacity="0" result="BackgroundImageFix"/>
<feColorMatrix in="SourceAlpha" type="matrix" values="0 0 0 0 0 0 0 0 0 0 0 0 0 0 0 0 0 0 127 0" result="hardAlpha"/>
<feOffset dy="4"/>
<feGaussianBlur stdDeviation="2"/>
<feComposite in2="hardAlpha" operator="out"/>
<feColorMatrix type="matrix" values="0 0 0 0 0 0 0 0 0 0.164706 0 0 0 0 0.227451 0 0 0 0.25 0"/>
<feBlend mode="normal" in2="BackgroundImageFix" result="effect1_dropShadow_20_52"/>
<feBlend mode="normal" in="SourceGraphic" in2="effect1_dropShadow_20_52" result="shape"/>
</filter>
</defs>
</svg>
