<svg width="1024" height="1024" viewBox="0 0 1024 1024" fill="none" xmlns="http://www.w3.org/2000/svg">
<rect width="1024" height="1024" fill="white"/>
<g filter="url(#filter0_d_18_50)">
<path fill-rule="evenodd" clip-rule="evenodd" d="M350.546 142.703L511.5 77L672.454 142.703L672.454 326.957L879 412.803V597.057L724.895 667.045V482.791L518.349 396.945L518.349 212.691L350.546 142.703ZM518.349 582.814L672.454 645.474L724.895 667.045L672.454 645.659V877.012L518.349 947V582.814ZM518.349 582.814L518.349 396.945L350.546 326.957L144 411.188L311.803 481.176V665.43L350.546 649.933L518.349 582.814Z" fill="#008C9E"/>
<path d="M350.546 142.703L511.5 77L672.454 142.703M350.546 142.703L518.349 212.691M350.546 142.703V326.957M672.454 142.703L518.349 212.691M672.454 142.703L672.454 326.957M518.349 212.691L518.349 396.945M518.349 947V582.814M518.349 947L350.546 877.012V649.933M518.349 947L672.454 877.012V645.659M350.546 326.957L144 411.188M350.546 326.957L518.349 396.945M350.546 649.63V649.933M724.895 482.791L518.349 396.945M724.895 482.791L879 412.803M724.895 482.791V667.045M518.349 396.945L311.803 481.176M518.349 396.945L672.454 326.957M518.349 396.945L518.349 582.814M144 411.188L311.803 481.176M144 411.188V595.442L311.803 665.43M311.803 481.176V665.43M311.803 665.43L350.546 649.933M518.349 582.814L672.454 645.474M518.349 582.814L350.546 649.933M518.349 582.814L672.454 645.659M672.454 326.957L879 412.803M724.895 667.045L672.454 645.474M724.895 667.045L879 597.057V412.803M724.895 667.045L672.454 645.659M672.454 645.474V645.659" stroke="#002A3A" stroke-width="13"/>
</g>
<defs>
<filter id="filter0_d_18_50" x="133.5" y="69.9792" width="756" height="892.109" filterUnits="userSpaceOnUse" color-interpolation-filters="sRGB">
<feFlood flood-opacity="0" result="BackgroundImageFix"/>
<feColorMatrix in="SourceAlpha" type="matrix" values="0 0 0 0 0 0 0 0 0 0 0 0 0 0 0 0 0 0 127 0" result="hardAlpha"/>
<feOffset dy="4"/>
<feGaussianBlur stdDeviation="2"/>
<feComposite in2="hardAlpha" operator="out"/>
<feColorMatrix type="matrix" values="0 0 0 0 0 0 0 0 0 0.164706 0 0 0 0 0.227451 0 0 0 0.25 0"/>
<feBlend mode="normal" in2="BackgroundImageFix" result="effect1_dropShadow_18_50"/>
<feBlend mode="normal" in="SourceGraphic" in2="effect1_dropShadow_18_50" result="shape"/>
</filter>
</defs>
</svg>
